<?xml version="1.0" encoding="utf-8"?>
<!-- Generator: Adobe Illustrator 16.0.0, SVG Export Plug-In . SVG Version: 6.00 Build 0)  -->
<!DOCTYPE svg PUBLIC "-//W3C//DTD SVG 1.1//EN" "http://www.w3.org/Graphics/SVG/1.1/DTD/svg11.dtd">
<svg version="1.1"
	 id="svg3960" xmlns:dc="http://purl.org/dc/elements/1.1/" xmlns:cc="http://creativecommons.org/ns#" xmlns:rdf="http://www.w3.org/1999/02/22-rdf-syntax-ns#" xmlns:svg="http://www.w3.org/2000/svg"
	 xmlns="http://www.w3.org/2000/svg" xmlns:xlink="http://www.w3.org/1999/xlink" x="0px" y="0px" width="200px" height="200px"
	 viewBox="0 0 200 200" enable-background="new 0 0 200 200" xml:space="preserve">
<path id="path3961" fill="#4A4C4E" d="M98.9,0.001C76.646,0.145,54.645,8.077,37.357,22.029l18.888,21.929
	c15.94-12.58,37.419-17.706,57.34-13.746c10.947,2.106,21.365,6.914,30.153,13.746l18.888-21.929
	C144.747,7.602,121.922-0.343,98.9,0.001z"/>
<path id="path4052" fill="#4A4C4E" d="M31.209,27.418c-19.9,18.696-31.57,45.875-31.201,73.29
	c0.012,28.456,12.993,56.409,34.551,74.898c19.928,17.428,47.029,26.306,73.487,24.061c28.671-2.136,55.884-17.448,72.706-40.715
	c16.375-22.109,22.79-51.267,17.354-78.304c-3.997-20.696-14.848-39.877-30.279-54.135l-18.888,21.928
	c15.22,14.346,23.528,35.52,21.963,56.408c-0.687,10.351-3.691,20.563-8.771,29.653l-38.49-37.179l-19.42-41.861l-0.029,63.394
	l38.897,37.643c-17.334,13.467-41.116,17.934-62.192,11.964c-8.58-2.394-16.707-6.41-23.77-11.799l39.163-37.809
	c-0.067-20.609,0.239-42.858,0-63.461l-19.449,41.93L38.02,134.812c-11.842-20.675-12.125-47.402-0.727-68.309
	c3.563-6.696,8.28-12.81,13.752-18.062L32.157,26.514C31.841,26.814,31.525,27.116,31.209,27.418z"/>
</svg>
